<?xml version="1.0" encoding="UTF-8"?><svg xmlns="http://www.w3.org/2000/svg" xmlns:xlink="http://www.w3.org/1999/xlink" width="810" zoomAndPan="magnify" viewBox="0 0 810 809.999993" height="809.999993" preserveAspectRatio="xMidYMid meet" version="1.0"><defs><clipPath id="clip-0"><path d="M 0 135.167969 L 810 135.167969 L 810 675.167969 L 0 675.167969 Z M 0 135.167969 " clip-rule="nonzero"/></clipPath></defs><path fill="rgb(100%, 74.119568%, 34.899902%)" d="M 337.542969 362.980469 C 337.542969 349.144531 326.074219 337.667969 312.246094 337.667969 L 286.949219 337.667969 L 286.949219 388.292969 L 312.246094 388.292969 C 326.074219 388.292969 337.542969 376.820312 337.542969 362.980469 Z M 337.542969 362.980469 " fill-opacity="1" fill-rule="nonzero"/><g clip-path="url(#clip-0)"><path fill="rgb(100%, 74.119568%, 34.899902%)" d="M 716.992188 135.167969 L 93.007812 135.167969 C 41.742188 135.167969 0.253906 176.679688 0.253906 227.980469 L 0.253906 582.355469 C 0.253906 633.65625 41.742188 675.167969 93.007812 675.167969 L 716.992188 675.167969 C 768.257812 675.167969 809.746094 633.65625 809.746094 582.355469 L 809.746094 227.980469 C 809.746094 176.679688 768.257812 135.167969 716.992188 135.167969 Z M 520.351562 424.742188 C 511.921875 441.957031 483.589844 441.957031 475.15625 424.742188 L 472.457031 419.679688 L 472.457031 497.980469 C 472.457031 511.820312 460.988281 523.292969 447.160156 523.292969 C 433.332031 523.292969 421.863281 511.820312 421.863281 497.980469 L 421.863281 312.355469 C 421.863281 300.542969 429.960938 290.417969 441.425781 287.71875 C 452.894531 285.019531 464.699219 290.417969 469.757812 301.21875 L 497.753906 356.90625 L 525.75 301.21875 C 530.808594 290.417969 542.613281 285.019531 554.082031 287.71875 C 565.550781 290.417969 573.644531 300.542969 573.644531 312.355469 L 573.644531 497.980469 C 573.644531 511.820312 562.175781 523.292969 548.347656 523.292969 C 534.519531 523.292969 523.050781 511.820312 523.050781 497.980469 L 523.050781 419.679688 Z M 598.941406 523.292969 L 683.261719 523.292969 C 697.089844 523.292969 708.558594 534.769531 708.558594 548.605469 C 708.558594 562.445312 697.089844 573.917969 683.261719 573.917969 L 598.941406 573.917969 C 585.113281 573.917969 573.644531 562.445312 573.644531 548.605469 C 573.644531 534.769531 585.113281 523.292969 598.941406 523.292969 Z M 236.355469 413.945312 C 236.355469 413.605469 236.355469 413.605469 236.355469 413.269531 L 236.355469 312.355469 C 236.355469 298.519531 247.824219 287.042969 261.652344 287.042969 L 312.246094 287.042969 C 354.070312 287.042969 388.136719 321.132812 388.136719 362.980469 C 388.136719 397.742188 364.527344 427.445312 332.484375 436.21875 L 386.785156 478.070312 C 397.917969 486.507812 399.941406 502.367188 391.171875 513.507812 C 386.449219 519.917969 378.691406 523.292969 371.269531 523.292969 C 365.875 523.292969 360.476562 521.605469 355.757812 517.894531 L 286.949219 464.90625 L 286.949219 497.980469 C 286.949219 511.820312 275.480469 523.292969 261.652344 523.292969 C 247.824219 523.292969 236.355469 511.820312 236.355469 497.980469 Z M 211.058594 287.042969 L 126.738281 287.042969 C 112.910156 287.042969 101.441406 275.570312 101.441406 261.730469 C 101.441406 247.894531 112.910156 236.417969 126.738281 236.417969 L 211.058594 236.417969 C 224.886719 236.417969 236.355469 247.894531 236.355469 261.730469 C 236.355469 275.570312 224.886719 287.042969 211.058594 287.042969 Z M 211.058594 287.042969 " fill-opacity="1" fill-rule="nonzero"/></g></svg>